<svg width="64" height="64" viewBox="0 0 64 64" fill="none" xmlns="http://www.w3.org/2000/svg">
<path fill-rule="evenodd" clip-rule="evenodd" d="M11.9992 11.1996C11.5581 11.1996 11.1992 10.8407 11.1992 10.3996C11.1992 9.95845 11.5581 9.59961 11.9992 9.59961C12.4403 9.59961 12.7992 9.95845 12.7992 10.3996C12.7992 10.8407 12.4403 11.1996 11.9992 11.1996Z" fill="#ECECFE"/>
<path fill-rule="evenodd" clip-rule="evenodd" d="M3.99922 56.0004C3.5581 56.0004 3.19922 55.6415 3.19922 55.2004C3.19922 54.7592 3.5581 54.4004 3.99922 54.4004C4.44034 54.4004 4.79922 54.7592 4.79922 55.2004C4.79922 55.6415 4.44034 56.0004 3.99922 56.0004Z" fill="#ECECFE"/>
<path fill-rule="evenodd" clip-rule="evenodd" d="M59.9992 51.1996C59.5581 51.1996 59.1992 50.8407 59.1992 50.3996C59.1992 49.9585 59.5581 49.5996 59.9992 49.5996C60.4403 49.5996 60.7992 49.9585 60.7992 50.3996C60.7992 50.8407 60.4403 51.1996 59.9992 51.1996Z" fill="#ECECFE"/>
<path fill-rule="evenodd" clip-rule="evenodd" d="M47.1984 9.6C46.7573 9.6 46.3984 9.24112 46.3984 8.8C46.3984 8.35884 46.7573 8 47.1984 8C47.6396 8 47.9984 8.35884 47.9984 8.8C47.9984 9.24112 47.6396 9.6 47.1984 9.6Z" fill="#ECECFE"/>
<path d="M33.7183 8C46.9731 8 57.7183 18.7452 57.7183 32C57.7183 32.4418 57.3601 32.8 56.9183 32.8C56.4765 32.8 56.1183 32.4418 56.1183 32C56.1183 19.6288 46.0895 9.6 33.7183 9.6C21.3471 9.6 11.3183 19.6288 11.3183 32C11.3183 44.3712 21.3471 54.4 33.7183 54.4C42.6421 54.4 50.604 49.134 54.181 41.1266C54.3612 40.7232 54.8343 40.5423 55.2377 40.7225C55.6411 40.9027 55.8221 41.3758 55.6419 41.7792C51.8097 50.3578 43.279 56 33.7183 56C20.4635 56 9.71829 45.2548 9.71829 32C9.71829 18.7452 20.4635 8 33.7183 8Z" fill="#E1000F"/>
<path d="M56.9183 38.8741C56.9183 39.3486 56.5336 39.7333 56.059 39.7333C55.5845 39.7333 55.1998 39.3486 55.1998 38.8741C55.1998 38.3995 55.5845 38.0148 56.059 38.0148C56.5336 38.0148 56.9183 38.3995 56.9183 38.8741Z" fill="#E1000F"/>
<path d="M11.5943 16.8257C11.2428 16.558 10.7408 16.6261 10.4732 16.9776C7.76947 20.5291 6.28125 24.8638 6.28125 29.4222C6.28125 29.864 6.63942 30.2222 7.08125 30.2222C7.52308 30.2222 7.88125 29.864 7.88125 29.4222C7.88125 25.217 9.25282 21.2221 11.7463 17.9468C12.0139 17.5952 11.9458 17.0933 11.5943 16.8257Z" fill="#E1000F"/>
<path fill-rule="evenodd" clip-rule="evenodd" d="M44.7972 27.9332C44.2294 21.1191 40.4166 17.5996 33.6 17.5996C26.7834 17.5996 22.9706 21.1191 22.4028 27.9332C22.3598 28.4488 22.8102 28.869 23.3216 28.7903L24.8 28.5629V28.9124C24.2274 29.0228 23.8053 29.1755 23.5094 29.3961C22.7591 29.9555 22.3999 30.8502 22.3999 31.9996C22.3999 34.0414 23.5581 35.1996 25.5999 35.1996C25.687 35.1996 25.7709 35.1857 25.8494 35.16C26.7004 36.8102 28.0197 38.1587 29.6228 39.0091C29.6079 39.0702 29.6 39.134 29.6 39.1996C29.6 40.2386 29.1049 41.1618 28.3377 41.7464C28.3254 41.7552 28.3133 41.7643 28.3015 41.7737C27.7699 42.167 27.1121 42.3996 26.4 42.3996H24.8L24.62 42.4029C22.0525 42.4976 20 44.6089 20 47.1996C20 47.6414 20.3582 47.9996 20.8 47.9996C21.2418 47.9996 21.6 47.6414 21.6 47.1996C21.6 45.4323 23.0327 43.9996 24.8 43.9996H26.4L26.58 43.9963C27.2491 43.9716 27.8832 43.81 28.4552 43.5386C29.3129 44.8885 30.8947 45.3006 32.994 44.7757C33.4227 44.6686 33.6833 44.2342 33.5761 43.8056C33.469 43.3769 33.0346 43.1163 32.606 43.2235C31.1102 43.5974 30.2365 43.395 29.7705 42.6172C30.5533 41.8451 31.0722 40.806 31.1794 39.6475C31.9481 39.8768 32.7601 39.9996 33.6 39.9996C34.4399 39.9996 35.2519 39.8768 36.0206 39.6475C36.241 42.0296 38.2021 43.9072 40.6201 43.9963L40.8 43.9996H42.4C44.1673 43.9996 45.6 45.4323 45.6 47.1996C45.6 47.6414 45.9582 47.9996 46.4 47.9996C46.8418 47.9996 47.2 47.6414 47.2 47.1996C47.2 44.6089 45.1475 42.4976 42.58 42.4029L42.4 42.3996H40.8C39.0327 42.3996 37.6 40.9669 37.6 39.1996C37.6 39.134 37.5921 39.0702 37.5772 39.0091C39.1803 38.1587 40.4996 36.8102 41.3506 35.16C41.4291 35.1857 41.5129 35.1996 41.6 35.1996C43.6418 35.1996 44.8 34.0414 44.8 31.9996C44.8 30.8502 44.4409 29.9555 43.6905 29.3961C43.2861 29.0945 42.6458 28.9198 41.7075 28.8068C41.6733 28.8022 41.6384 28.7997 41.603 28.7996L41.6017 28.7995C41.5245 28.7993 41.4492 28.8102 41.3778 28.8309C41.2625 28.8641 41.158 28.9226 41.0705 28.9999C40.9157 29.1367 40.8143 29.3325 40.8014 29.552C40.8002 29.5721 40.7997 29.5921 40.8 29.6119V30.7996L40.797 31.0202C40.6864 35.1235 37.4979 38.3996 33.6 38.3996C29.6325 38.3996 26.4 35.0055 26.4 30.7996V28.3167L33.7216 27.1903L33.816 27.1699C34.0318 27.1094 34.214 26.9605 34.3155 26.7574L35.1155 25.1574L35.1525 25.0715C35.2891 24.695 35.1247 24.2675 34.7578 24.0841L34.6719 24.0472C34.2954 23.9106 33.8679 24.0749 33.6845 24.4418L33.0688 25.6716L24.112 27.0492L24.1266 26.9462C24.9106 21.7204 28.0027 19.1996 33.6 19.1996L33.8873 19.2019C39.2083 19.2858 42.1969 21.7228 43.0308 26.6783L43.072 26.9428L37.794 25.6235L37.7022 25.6061C37.305 25.5544 36.9234 25.8076 36.8239 26.2056C36.7167 26.6342 36.9773 27.0686 37.406 27.1757L43.806 28.7757L43.8994 28.7934C44.3953 28.8578 44.8401 28.4473 44.7972 27.9332ZM24.8 30.5517C24.6303 30.5963 24.5171 30.6406 24.4657 30.6788C24.1659 30.9024 23.9999 31.3158 23.9999 31.9996C23.9999 33.0171 24.3409 33.4817 25.2091 33.5796C24.965 32.7739 24.8243 31.9206 24.8029 31.0367L24.8 30.7996V30.5517ZM43.2 31.9996C43.2 33.0171 42.859 33.4817 41.9909 33.5795C42.2567 32.7021 42.4 31.7681 42.4 30.7996V30.5517C42.5696 30.5963 42.6829 30.6406 42.7342 30.6788C43.034 30.9024 43.2 31.3158 43.2 31.9996Z" fill="#000091"/>
</svg>
