<svg width="280" height="607" viewBox="0 0 280 607" fill="none" xmlns="http://www.w3.org/2000/svg">
<g opacity="0.3">
<path d="M110 29H-3" stroke="white" stroke-width="6" stroke-linecap="round"/>
<path d="M29 3H-84" stroke="white" stroke-width="6" stroke-linecap="round"/>
<path d="M149 55L-50 55" stroke="white" stroke-width="6" stroke-linecap="round"/>
<path d="M202 268L3 268" stroke="white" stroke-width="6" stroke-linecap="round"/>
<path d="M266 320L67 320" stroke="white" stroke-width="6" stroke-linecap="round"/>
<path d="M42 320L-157 320" stroke="white" stroke-width="6" stroke-linecap="round"/>
<path d="M137 534L-62 534" stroke="white" stroke-width="6" stroke-linecap="round"/>
<path d="M172 557L-27 557" stroke="white" stroke-width="6" stroke-linecap="round"/>
<path d="M163 452L-36 452" stroke="white" stroke-width="6" stroke-linecap="round"/>
<path d="M210 479L11 479" stroke="white" stroke-width="6" stroke-linecap="round"/>
<path d="M22 81L-154 81" stroke="white" stroke-width="6" stroke-linecap="round"/>
<path d="M173 241L-3.00001 241" stroke="white" stroke-width="6" stroke-linecap="round"/>
<path d="M277 398L101 398" stroke="white" stroke-width="6" stroke-linecap="round"/>
<path d="M67 107L-235 107" stroke="white" stroke-width="6" stroke-linecap="round"/>
<path d="M214 344L-88 344" stroke="white" stroke-width="6" stroke-linecap="round"/>
<path d="M277 373L-25 373" stroke="white" stroke-width="6" stroke-linecap="round"/>
<path d="M83 398L-219 398" stroke="white" stroke-width="6" stroke-linecap="round"/>
<path d="M67 425L-235 425" stroke="white" stroke-width="6" stroke-linecap="round"/>
<path d="M137 135L-165 135" stroke="white" stroke-width="6" stroke-linecap="round"/>
<path d="M117 507L-185 507" stroke="white" stroke-width="6" stroke-linecap="round"/>
<path d="M123 581L-179 581" stroke="white" stroke-width="6" stroke-linecap="round"/>
<path d="M102 159L-200 159" stroke="white" stroke-width="6" stroke-linecap="round"/>
<path d="M252 292L-50 292" stroke="white" stroke-width="6" stroke-linecap="round"/>
<path d="M67 185L-235 185" stroke="white" stroke-width="6" stroke-linecap="round"/>
<path d="M224 213L-78 213" stroke="white" stroke-width="6" stroke-linecap="round"/>
<path d="M126 185H94" stroke="white" stroke-width="6" stroke-linecap="round"/>
<path d="M122 107H90" stroke="white" stroke-width="6" stroke-linecap="round"/>
<path d="M161 159H129" stroke="white" stroke-width="6" stroke-linecap="round"/>
<path d="M126 81H55" stroke="white" stroke-width="6" stroke-linecap="round"/>
<path d="M78 604H7" stroke="white" stroke-width="6" stroke-linecap="round"/>
</g>
</svg>
