<svg width="64" height="64" viewBox="0 0 64 64" fill="none" xmlns="http://www.w3.org/2000/svg">
<path fill-rule="evenodd" clip-rule="evenodd" d="M58.4016 24.8002C57.9604 24.8002 57.6016 24.4413 57.6016 24.0002C57.6016 23.559 57.9604 23.2002 58.4016 23.2002C58.8427 23.2002 59.2016 23.559 59.2016 24.0002C59.2016 24.4413 58.8427 24.8002 58.4016 24.8002Z" fill="#ECECFE"/>
<path fill-rule="evenodd" clip-rule="evenodd" d="M44.8 52.0004C44.3589 52.0004 44 51.6415 44 51.2004C44 50.7592 44.3589 50.4004 44.8 50.4004C45.2411 50.4004 45.6 50.7592 45.6 51.2004C45.6 51.6415 45.2411 52.0004 44.8 52.0004Z" fill="#ECECFE"/>
<path fill-rule="evenodd" clip-rule="evenodd" d="M26.4016 54.3998C25.9604 54.3998 25.6016 54.0409 25.6016 53.5998C25.6016 53.1586 25.9604 52.7998 26.4016 52.7998C26.8427 52.7998 27.2016 53.1586 27.2016 53.5998C27.2016 54.0409 26.8427 54.3998 26.4016 54.3998Z" fill="#ECECFE"/>
<path fill-rule="evenodd" clip-rule="evenodd" d="M19.1984 37.6C18.7573 37.6 18.3984 37.2411 18.3984 36.8C18.3984 36.3588 18.7573 36 19.1984 36C19.6396 36 19.9984 36.3588 19.9984 36.8C19.9984 37.2411 19.6396 37.6 19.1984 37.6Z" fill="#ECECFE"/>
<path fill-rule="evenodd" clip-rule="evenodd" d="M16.8 13.6C16.3589 13.6 16 13.2411 16 12.8C16 12.3588 16.3589 12 16.8 12C17.2411 12 17.6 12.3588 17.6 12.8C17.6 13.2411 17.2411 13.6 16.8 13.6Z" fill="#ECECFE"/>
<path fill-rule="evenodd" clip-rule="evenodd" d="M10.4 34.09C9.95817 34.09 9.6 34.4482 9.6 34.89C9.6 35.3318 9.95817 35.69 10.4 35.69C10.8418 35.69 11.2 35.3318 11.2 34.89C11.2 34.4482 10.8418 34.09 10.4 34.09ZM8 34.89C8 33.5645 9.07452 32.49 10.4 32.49C11.7255 32.49 12.8 33.5645 12.8 34.89C12.8 36.2155 11.7255 37.29 10.4 37.29C9.07452 37.29 8 36.2155 8 34.89Z" fill="#E1000F"/>
<path fill-rule="evenodd" clip-rule="evenodd" d="M10.4 35.77C10.8418 35.77 11.2 36.1282 11.2 36.57V38.65C11.2 39.0918 10.8418 39.45 10.4 39.45C9.95817 39.45 9.6 39.0918 9.6 38.65V36.57C9.6 36.1282 9.95817 35.77 10.4 35.77Z" fill="#E1000F"/>
<path fill-rule="evenodd" clip-rule="evenodd" d="M23.44 22.89C22.9982 22.89 22.64 23.2482 22.64 23.69C22.64 24.1318 22.9982 24.49 23.44 24.49C23.8819 24.49 24.24 24.1318 24.24 23.69C24.24 23.2482 23.8819 22.89 23.44 22.89ZM21.04 23.69C21.04 22.3645 22.1146 21.29 23.44 21.29C24.7655 21.29 25.84 22.3645 25.84 23.69C25.84 25.0155 24.7655 26.09 23.44 26.09C22.1146 26.09 21.04 25.0155 21.04 23.69Z" fill="#E1000F"/>
<path fill-rule="evenodd" clip-rule="evenodd" d="M23.44 24.57C23.8819 24.57 24.24 24.9282 24.24 25.37V27.45C24.24 27.8918 23.8819 28.25 23.44 28.25C22.9982 28.25 22.64 27.8918 22.64 27.45V25.37C22.64 24.9282 22.9982 24.57 23.44 24.57Z" fill="#E1000F"/>
<path fill-rule="evenodd" clip-rule="evenodd" d="M37.6 19.21C37.1582 19.21 36.8 19.5682 36.8 20.01C36.8 20.4518 37.1582 20.81 37.6 20.81C38.0418 20.81 38.4 20.4518 38.4 20.01C38.4 19.5682 38.0418 19.21 37.6 19.21ZM35.2 20.01C35.2 18.6845 36.2745 17.61 37.6 17.61C38.9255 17.61 40 18.6845 40 20.01C40 21.3355 38.9255 22.41 37.6 22.41C36.2745 22.41 35.2 21.3355 35.2 20.01Z" fill="#E1000F"/>
<path fill-rule="evenodd" clip-rule="evenodd" d="M37.6 20.97C38.0418 20.97 38.4 21.3282 38.4 21.77V23.85C38.4 24.2918 38.0418 24.65 37.6 24.65C37.1582 24.65 36.8 24.2918 36.8 23.85V21.77C36.8 21.3282 37.1582 20.97 37.6 20.97Z" fill="#E1000F"/>
<path fill-rule="evenodd" clip-rule="evenodd" d="M33.92 33.53C33.4782 33.53 33.12 33.8882 33.12 34.33C33.12 34.7718 33.4782 35.13 33.92 35.13C34.3618 35.13 34.72 34.7718 34.72 34.33C34.72 33.8882 34.3618 33.53 33.92 33.53ZM31.52 34.33C31.52 33.0045 32.5945 31.93 33.92 31.93C35.2455 31.93 36.32 33.0045 36.32 34.33C36.32 35.6555 35.2455 36.73 33.92 36.73C32.5945 36.73 31.52 35.6555 31.52 34.33Z" fill="#E1000F"/>
<path fill-rule="evenodd" clip-rule="evenodd" d="M33.92 35.21C34.3618 35.21 34.72 35.5682 34.72 36.01V38.09C34.72 38.5318 34.3618 38.89 33.92 38.89C33.4782 38.89 33.12 38.5318 33.12 38.09V36.01C33.12 35.5682 33.4782 35.21 33.92 35.21Z" fill="#E1000F"/>
<path fill-rule="evenodd" clip-rule="evenodd" d="M45.12 38.41C44.6782 38.41 44.32 38.7682 44.32 39.21C44.32 39.6518 44.6782 40.01 45.12 40.01C45.5618 40.01 45.92 39.6518 45.92 39.21C45.92 38.7682 45.5618 38.41 45.12 38.41ZM42.72 39.21C42.72 37.8845 43.7945 36.81 45.12 36.81C46.4455 36.81 47.52 37.8845 47.52 39.21C47.52 40.5355 46.4455 41.61 45.12 41.61C43.7945 41.61 42.72 40.5355 42.72 39.21Z" fill="#E1000F"/>
<path fill-rule="evenodd" clip-rule="evenodd" d="M45.12 40.17C45.5618 40.17 45.92 40.5282 45.92 40.97V43.05C45.92 43.4918 45.5618 43.85 45.12 43.85C44.6782 43.85 44.32 43.4918 44.32 43.05V40.97C44.32 40.5282 44.6782 40.17 45.12 40.17Z" fill="#E1000F"/>
<path fill-rule="evenodd" clip-rule="evenodd" d="M44.72 25.85C44.2782 25.85 43.92 26.2082 43.92 26.65C43.92 27.0918 44.2782 27.45 44.72 27.45C45.1618 27.45 45.52 27.0918 45.52 26.65C45.52 26.2082 45.1618 25.85 44.72 25.85ZM42.32 26.65C42.32 25.3245 43.3945 24.25 44.72 24.25C46.0455 24.25 47.12 25.3245 47.12 26.65C47.12 27.9755 46.0455 29.05 44.72 29.05C43.3945 29.05 42.32 27.9755 42.32 26.65Z" fill="#E1000F"/>
<path fill-rule="evenodd" clip-rule="evenodd" d="M44.72 27.61C45.1618 27.61 45.52 27.9682 45.52 28.41V30.49C45.52 30.9318 45.1618 31.29 44.72 31.29C44.2782 31.29 43.92 30.9318 43.92 30.49V28.41C43.92 27.9682 44.2782 27.61 44.72 27.61Z" fill="#E1000F"/>
<path fill-rule="evenodd" clip-rule="evenodd" d="M49.6 11.85C49.1582 11.85 48.8 12.2082 48.8 12.65C48.8 13.0918 49.1582 13.45 49.6 13.45C50.0418 13.45 50.4 13.0918 50.4 12.65C50.4 12.2082 50.0418 11.85 49.6 11.85ZM47.2 12.65C47.2 11.3245 48.2745 10.25 49.6 10.25C50.9255 10.25 52 11.3245 52 12.65C52 13.9755 50.9255 15.05 49.6 15.05C48.2745 15.05 47.2 13.9755 47.2 12.65Z" fill="#E1000F"/>
<path fill-rule="evenodd" clip-rule="evenodd" d="M49.6 13.53C50.0418 13.53 50.4 13.8882 50.4 14.33V16.41C50.4 16.8518 50.0418 17.21 49.6 17.21C49.1582 17.21 48.8 16.8518 48.8 16.41V14.33C48.8 13.8882 49.1582 13.53 49.6 13.53Z" fill="#E1000F"/>
<path d="M41.5984 33.7698H43.1984H41.5984Z" fill="#000091"/>
<path d="M31.9984 24.9698H33.5984H31.9984Z" fill="#000091"/>
<path d="M44.7984 20.9698H46.3984H44.7984Z" fill="#000091"/>
<path d="M8.18981 22.8898C7.86981 22.8898 7.54981 22.6498 7.38981 22.3298L6.90981 20.1698C6.82981 19.7698 7.06981 19.2898 7.46981 19.2098C7.86981 19.1298 8.34981 19.3698 8.42981 19.7698L8.98981 21.8498C9.06981 22.2498 8.82981 22.7298 8.42981 22.8098C8.34981 22.8898 8.26981 22.8898 8.18981 22.8898ZM10.3498 20.9698C10.0298 20.9698 9.62981 20.8898 9.30981 20.5698C8.90981 20.1698 8.98981 19.6098 9.06981 19.2098C9.06981 19.0498 9.14981 18.8098 9.06981 18.7298C8.82981 18.3298 8.90981 17.8498 9.30981 17.6098C9.70981 17.3698 10.1898 17.4498 10.4298 17.8498C10.7498 18.4098 10.7498 18.9698 10.6698 19.3698C10.7498 19.3698 10.7498 19.3698 10.8298 19.3698C11.0698 19.2898 11.3898 19.2898 11.7098 19.2898C12.1898 19.2898 12.5098 19.6098 12.5098 20.0898C12.5098 20.5698 12.1898 20.8898 11.7098 20.8898C11.5498 20.8898 11.3098 20.8898 11.1498 20.9698C10.8298 20.9698 10.5898 20.9698 10.3498 20.9698Z" fill="#000091"/>
<path d="M47.5498 15.8498C47.1498 14.4898 46.5898 14.0898 46.1098 13.9298C46.1098 13.8498 46.0298 13.7698 46.0298 13.6898C45.9498 13.3698 45.7898 12.8898 45.3898 12.5698C44.9898 12.2498 44.5898 12.3298 44.2698 12.3298H44.1898C43.8698 12.1698 43.5498 12.1698 43.2298 12.2498L43.1498 12.1698C42.5898 11.6098 42.1098 11.3698 41.7098 11.2098C41.6298 10.9698 41.4698 10.7298 41.3098 10.4898C40.7498 9.8498 40.1898 9.8498 39.8698 9.8498C39.7898 9.7698 39.7898 9.6898 39.7098 9.6098C39.3898 9.1298 39.1498 8.8098 38.3498 8.8098C37.4698 8.7298 35.3098 9.1298 34.5098 10.0098C33.7898 10.7298 33.4698 11.5298 33.4698 12.4098C33.4698 12.5698 33.4698 12.8098 33.5498 12.9698C33.5498 13.0498 33.5498 13.2098 33.6298 13.2098C33.3098 13.3698 33.0698 13.4498 32.7498 13.5298C32.3498 13.6098 31.9498 13.7698 31.3898 14.1698C31.3098 14.1698 31.2298 14.2498 31.1498 14.2498C30.7498 14.3298 30.1098 14.5698 29.9498 15.2098V15.2898C29.8698 15.2898 29.7898 15.2098 29.7098 15.1298C29.6298 15.0498 29.4698 14.8898 29.3898 14.8098C29.1498 14.4898 28.8298 14.1698 28.5098 13.9298C28.0298 13.6098 27.6298 13.6898 27.3098 13.8498C26.3498 13.6098 25.7098 13.8498 25.3898 14.0898C24.9898 14.3298 24.5098 14.8098 24.3498 15.8498C24.2698 16.4098 24.5098 16.8898 24.9098 17.4498C24.7498 17.2898 24.4298 17.0498 23.9498 17.0498C23.2298 17.0498 21.7898 17.0498 20.4298 17.2898C20.3498 17.2898 20.3498 17.2898 20.2698 17.3698L19.8698 17.5298C18.5898 18.0098 16.5098 18.7298 16.9098 20.6498C16.9898 21.0498 16.9898 21.4498 16.9898 21.4498C16.9898 21.6898 17.0698 21.9298 17.3098 22.0898L17.7098 22.3298C17.7098 22.7298 17.7098 23.2898 18.1898 23.6898C18.3498 23.8498 18.6698 24.2498 18.9898 24.5698C19.3098 24.9698 19.5498 25.2098 19.6298 25.2898C19.7898 25.4498 19.9498 25.5298 20.1898 25.5298C20.4298 25.5298 20.5898 25.4498 20.7498 25.2898C21.0698 24.9698 20.9898 24.4898 20.6698 24.1698C20.5898 24.0898 20.3498 23.8498 20.1098 23.5298C19.7898 23.2098 19.4698 22.8098 19.3098 22.6498C19.3098 22.5698 19.3098 22.4098 19.3098 22.3298C19.3098 22.2498 19.3098 22.0898 19.3098 22.0098C19.3098 21.7698 19.1498 21.5298 18.9898 21.3698L18.5898 21.0498C18.5898 20.8098 18.5098 20.5698 18.5098 20.2498C18.4298 19.7698 19.3898 19.3698 20.4298 18.9698L20.7498 18.8098C21.8698 18.6498 23.0698 18.6498 23.7098 18.6498C24.0298 19.6098 24.7498 19.5298 25.1498 19.4498C25.1498 19.4498 25.3098 19.4498 25.3898 19.5298C25.6298 19.6098 26.5098 19.8498 26.9098 19.1298C27.3098 18.4098 26.8298 17.6098 26.3498 16.8898C26.1898 16.6498 25.9498 16.2498 25.8698 16.0898C25.9498 15.7698 26.0298 15.5298 26.1898 15.4498C26.3498 15.3698 26.6698 15.3698 26.8298 15.4498C27.2298 15.5298 27.5498 15.5298 27.7098 15.4498C27.8698 15.5298 27.9498 15.6898 28.1098 15.8498C28.2698 16.0098 28.4298 16.2498 28.6698 16.4098C29.0698 16.7298 29.8698 17.1298 30.5898 16.9698C30.9898 16.8898 31.2298 16.6498 31.3898 16.3298C31.4698 16.0898 31.4698 15.9298 31.4698 15.7698H31.5498C31.7898 15.6898 32.0298 15.6098 32.2698 15.4498C32.5898 15.2098 32.8298 15.1298 33.1498 15.0498C33.4698 14.9698 33.9498 14.8098 34.4298 14.4898C35.3098 13.9298 35.1498 13.1298 35.0698 12.6498C35.0698 12.5698 35.0698 12.4098 35.0698 12.3298C35.0698 12.0098 35.1498 11.5298 35.6298 10.9698C35.9498 10.6498 37.3898 10.2498 38.1898 10.2498C38.1898 10.2498 38.1898 10.3298 38.2698 10.3298C38.3498 10.4098 38.4298 10.5698 38.5098 10.7298C38.9898 11.3698 39.5498 11.2898 39.7898 11.2898C39.8698 11.2898 39.8698 11.2898 39.9498 11.2898C40.0298 11.3698 40.1898 11.6898 40.2698 11.9298C40.3498 12.1698 40.5898 12.4098 40.9098 12.4898C40.9098 12.4898 41.3898 12.5698 41.9498 13.1298C42.3498 13.5298 42.9098 13.9298 43.5498 13.6898C43.8698 13.7698 44.1098 13.7698 44.3498 13.7698C44.3498 13.8498 44.3498 13.9298 44.4298 14.0098C44.5098 14.1698 44.5098 14.4098 44.5898 14.5698C44.8298 15.0498 45.1498 15.2098 45.3898 15.2898C45.5498 15.3698 45.7098 15.4498 45.9498 16.2498C46.1098 16.6498 46.5098 16.8898 46.9098 16.8098C47.4698 16.6498 47.7098 16.2498 47.5498 15.8498Z" fill="#000091"/>
<path d="M9.78982 30.8098C9.38982 30.8098 9.06982 30.4898 8.98982 30.0898C8.90982 29.6898 9.22982 29.2898 9.70982 29.2098L10.2698 29.1298C9.94982 28.9698 9.54982 28.7298 9.06982 28.4898C8.42982 28.1698 8.18981 27.6898 8.02981 27.3698C7.94981 27.2098 7.86982 27.0498 7.70982 26.8898C7.38982 26.5698 7.46982 26.0898 7.78982 25.7698C8.10982 25.4498 8.58982 25.5298 8.90982 25.8498C9.14982 26.0898 9.30982 26.4098 9.38982 26.6498C9.54982 26.9698 9.62982 27.0498 9.70982 27.1298C12.5898 28.5698 13.0698 29.1298 12.9098 29.7698C12.8298 30.0898 12.5898 30.4898 12.0298 30.5698L9.78982 30.8898C9.78982 30.8098 9.78982 30.8098 9.78982 30.8098Z" fill="#000091"/>
<path d="M14.3498 38.9698L14.1098 38.5698C13.8698 38.1698 13.3898 38.0898 12.9898 38.3298C12.5898 38.5698 12.5098 39.0498 12.7498 39.4498L12.8298 39.6098L12.7498 40.1698C12.6698 40.2498 12.6698 40.3298 12.5898 40.4098C12.4298 40.6498 12.1898 40.8898 12.0298 41.0498C11.9498 41.1298 11.8698 41.2098 11.8698 41.3698C11.7898 41.5298 11.7098 41.8498 11.6298 42.0898C11.6298 42.1698 11.5498 42.2498 11.5498 42.2498H11.4698C11.3898 42.2498 11.3098 42.2498 11.2298 42.1698C11.2298 42.1698 11.2298 42.1698 11.1498 42.1698L11.0698 42.0898C10.9898 42.0098 10.9098 41.9298 10.8298 41.8498C10.6698 41.7698 10.5098 41.6898 10.2698 41.6898C10.1898 41.6898 10.0298 41.6898 9.94982 41.7698C9.94982 41.7698 9.86982 41.7698 9.78982 41.6898C9.78982 41.6898 9.70981 41.6898 9.62981 41.6098L9.78982 41.2898C9.94982 41.0498 9.94982 40.7298 9.78982 40.4898L9.22981 39.5298C8.98981 39.1298 8.50981 39.0498 8.10981 39.2898C7.70981 39.5298 7.62981 40.0098 7.86981 40.4098L8.18981 40.9698L7.62981 41.8498C7.46981 42.0898 7.46981 42.4098 7.62981 42.6498C7.78981 42.8898 8.02981 43.0498 8.26981 43.0498L8.90981 43.1298C8.90981 43.1298 8.90982 43.1298 8.98981 43.1298C9.06981 43.2098 9.14981 43.2098 9.22981 43.2898C9.30981 43.3698 9.46981 43.3698 9.70981 43.4498C9.78981 43.4498 9.94981 43.4498 10.1098 43.4498C10.2698 43.6098 10.5098 43.6898 10.6698 43.7698C10.8298 43.8498 11.0698 43.8498 11.2298 43.9298C11.3898 43.9298 11.6298 43.9298 11.8698 43.9298C12.0298 43.9298 12.2698 43.8498 12.5098 43.6898C12.5898 43.6898 12.5898 43.6098 12.5898 43.6098C12.6698 43.5298 12.6698 43.5298 12.7498 43.4498C12.8298 43.3698 12.8298 43.2898 12.9098 43.2098C12.9898 43.0498 13.0698 42.8898 13.1498 42.8098C13.2298 42.5698 13.3098 42.3298 13.3898 42.1698C13.5498 42.0098 13.7098 41.7698 13.8698 41.6098C13.9498 41.4498 14.1098 41.3698 14.1898 41.2898C14.1898 41.2098 14.2698 41.2098 14.3498 41.1298C14.3498 41.1298 14.4298 41.0498 14.4298 40.9698C14.4298 40.9698 14.5098 40.8098 14.5098 40.7298L14.5898 39.6898C14.5098 39.3698 14.4298 39.1298 14.3498 38.9698Z" fill="#000091"/>
<path d="M13.8698 51.3698L14.1098 51.0498L13.8698 51.3698ZM14.1098 51.0498C14.2698 50.8098 14.2698 50.5698 14.1898 50.3298L13.8698 49.3698L13.9498 49.0498C13.9498 48.8898 13.9498 48.8098 13.9498 48.6498L13.8698 48.3298C13.7898 48.0098 13.5498 47.8498 13.2298 47.7698H12.9098L12.3498 47.2098L12.1898 46.6498C12.1098 46.3298 11.7898 46.0898 11.4698 46.0898L10.4298 46.0098L9.14982 46.2498C9.06982 46.2498 8.90982 46.3298 8.82982 46.3298L7.22982 47.2898C6.98982 47.4498 6.82982 47.6898 6.82982 47.9298V48.4098L6.58982 48.6498C6.42982 48.8898 6.34982 49.1298 6.42982 49.3698L6.74982 49.7698C6.74982 49.9298 6.82982 50.0098 6.98982 50.0898L7.62982 50.7298L7.94982 51.2098L8.10982 51.3698C8.18982 51.4498 8.26982 51.5298 8.42982 51.6098C8.50982 51.6898 8.66982 51.7698 8.90982 51.8498C8.98982 51.8498 9.14982 51.9298 9.14982 51.9298C9.22982 51.9298 9.30982 51.9298 9.38982 51.9298C9.54982 51.9298 9.78982 52.0098 10.0298 52.0098C10.5098 52.0898 10.9898 52.1698 11.3098 52.1698C11.3898 52.1698 11.5498 52.1698 11.6298 52.1698L13.5498 51.6098C13.7098 51.5298 13.8698 51.4498 13.9498 51.2898M11.3098 48.4898L11.3898 48.5698L11.9498 49.0498C12.0298 49.1298 12.1898 49.2098 12.2698 49.2098C12.2698 49.3698 12.2698 49.4498 12.2698 49.6098L12.4298 50.2498L11.1498 50.6498C10.8298 50.6498 10.4298 50.5698 10.0298 50.4898C9.78982 50.4898 9.62982 50.4098 9.46982 50.4098C9.38982 50.4098 9.38982 50.4098 9.30982 50.4098C9.30982 50.4098 9.22982 50.4098 9.22982 50.3298C9.14982 50.3298 9.14982 50.2498 9.06982 50.2498L8.90982 49.8498C8.90982 49.7698 8.82982 49.7698 8.82982 49.6898L8.42982 49.2898L8.50982 49.2098C8.58982 49.0498 8.66982 48.8898 8.66982 48.7298V48.4898L9.70982 47.8498L10.7498 47.6898H10.9898L11.0698 47.8498C11.0698 47.9298 11.1498 48.0098 11.2298 48.0898L11.3098 48.4898Z" fill="#000091"/>
<path d="M57.1498 52.3298C57.1498 52.2498 57.0698 52.2498 56.9898 52.1698C57.1498 51.7698 57.1498 51.4498 57.0698 51.0498C57.0698 50.8898 57.0698 50.7298 56.9898 50.5698C56.9898 50.4898 57.0698 50.4898 57.0698 50.4898C57.2298 50.2498 57.5498 49.8498 57.4698 49.2098C57.3898 48.5698 56.9898 48.1698 56.6698 47.9298C56.5098 47.7698 56.4298 47.6898 56.3498 47.6098C56.3498 47.5298 56.3498 47.2898 56.3498 47.1298C56.3498 46.7298 56.3498 46.1698 55.8698 45.7698C55.7098 45.6898 55.3898 45.5298 54.8298 45.6898C54.0298 46.0098 51.5498 48.0898 51.7898 49.4498C51.7898 49.6098 51.8698 49.7698 51.9498 49.8498C51.9498 49.9298 51.8698 49.9298 51.8698 50.0098C51.4698 50.8098 52.1098 51.4498 52.3498 51.6898C52.4298 51.7698 52.5098 51.8498 52.5898 51.8498C52.5898 51.9298 52.5898 52.0098 52.5098 52.0898C52.2698 52.8098 52.4298 53.3698 52.9898 53.6898C53.0698 53.6898 53.1498 53.7698 53.2298 53.7698C53.3098 54.0098 53.4698 54.2498 53.7098 54.4098C54.1098 54.7298 54.8298 54.8898 55.4698 54.8898C55.9498 54.8898 56.3498 54.8098 56.7498 54.6498C56.9098 54.5698 57.5498 54.2498 57.7098 53.6098C57.7098 53.0498 57.3898 52.6498 57.1498 52.3298ZM55.9498 49.5298C55.7898 49.6898 55.5498 50.0898 55.5498 50.6498C55.5498 50.8898 55.5498 51.1298 55.6298 51.2898C55.6298 51.3698 55.6298 51.5298 55.6298 51.5298C55.2298 52.3298 55.7098 52.9698 55.9498 53.2898C55.7098 53.3698 55.1498 53.3698 54.8298 53.2098C54.8298 53.0498 54.7498 52.8098 54.6698 52.6498C54.5098 52.4898 54.3498 52.4098 54.1898 52.3298C54.2698 52.0898 54.2698 51.8498 54.1898 51.5298C54.1098 51.0498 53.7898 50.8098 53.5498 50.5698C53.6298 50.4898 53.7098 50.3298 53.7898 50.0898C53.8698 49.6098 53.7098 49.2898 53.4698 49.0498C53.6298 48.6498 54.2698 47.9298 54.8298 47.5298C54.8298 47.7698 54.9098 48.0098 54.9898 48.2498C55.1498 48.6498 55.4698 48.8098 55.6298 49.0498C55.8698 49.2898 55.8698 49.2898 55.9498 49.3698C55.9498 49.4498 55.9498 49.4498 55.9498 49.5298Z" fill="#000091"/>
<path d="M55.4698 37.1298C55.3898 36.4898 54.9098 35.7698 54.5898 35.4498C54.2698 35.0498 53.8698 34.9698 53.5498 34.9698C53.6298 34.8098 53.6298 34.5698 53.4698 34.3298C53.3898 34.0898 53.2298 33.9298 53.0698 33.8498C53.2298 33.6898 53.3898 33.4498 53.4698 33.2098C53.6298 32.6498 53.3098 31.6898 53.1498 31.2898C53.0698 31.1298 52.9098 30.9698 52.7498 30.8098C52.9898 30.5698 53.0698 30.2498 52.9898 29.9298C52.9098 29.4498 52.5898 29.0498 52.2698 28.7298C52.1898 28.6498 52.0298 28.4098 51.9498 28.4098C51.9498 28.3298 51.9498 28.2498 51.9498 28.1698C51.9498 27.8498 51.9498 27.2098 51.5498 26.8098C51.7898 26.5698 52.0298 26.2498 52.1898 25.9298C52.2698 25.8498 52.5098 25.7698 52.5898 25.7698C53.0698 25.5298 54.1898 25.0498 53.9498 24.0098C53.7898 23.0498 53.7098 22.6498 53.9498 21.9298C54.0298 21.6098 54.1098 21.4498 54.1898 21.2098C54.2698 20.9698 54.3498 20.6498 54.4298 20.2498C54.4298 20.1698 54.5098 20.1698 54.5898 20.0098C54.7498 19.7698 55.0698 19.3698 54.9898 18.7298C54.9898 18.6498 54.9898 18.4898 54.9898 18.4098C54.9898 18.0098 54.9898 17.3698 54.3498 16.8898C53.7098 16.4098 53.0698 16.4898 52.5898 16.5698C52.4298 16.5698 52.2698 16.5698 52.1098 16.5698C51.6298 16.5698 51.3098 16.8898 51.3098 17.3698C51.3098 17.8498 51.6298 18.1698 52.1098 18.1698C52.3498 18.1698 52.5898 18.1698 52.7498 18.0898C53.1498 18.0098 53.2298 18.0098 53.3898 18.0898C53.3898 18.0898 53.3898 18.2498 53.3898 18.3298C53.3898 18.4898 53.3898 18.6498 53.3898 18.7298L53.3098 18.8098C53.1498 18.9698 52.9898 19.2098 52.9098 19.5298C52.7498 19.9298 52.6698 20.2498 52.5898 20.5698C52.5098 20.7298 52.5098 20.9698 52.4298 21.2898C52.1098 22.3298 52.1898 23.0498 52.3498 24.0098C52.2698 24.0898 52.1098 24.1698 51.9498 24.1698C51.4698 24.4098 50.8298 24.6498 50.6698 25.2898C50.5898 25.4498 50.1098 25.7698 49.8698 25.9298C49.4698 26.1698 48.9098 26.5698 48.9898 27.2098C48.9898 27.4498 49.2298 27.8498 49.7898 28.0098C49.8698 28.0098 50.0298 28.0898 50.1098 28.0098C50.1898 28.0098 50.1898 28.0098 50.2698 28.0098C50.2698 28.2498 50.2698 28.4898 50.3498 28.7298C50.4298 29.2098 50.7498 29.5298 50.9898 29.7698C50.9898 29.7698 50.9898 29.7698 51.0698 29.8498C50.4298 30.2498 50.3498 30.7298 50.4298 31.1298C50.5898 31.7698 51.1498 32.0898 51.6298 32.1698C51.7098 32.4098 51.7098 32.5698 51.7098 32.7298C51.7098 32.7298 51.6298 32.7298 51.6298 32.8098C51.3098 32.9698 50.7498 33.3698 50.8298 34.0898C50.9098 34.5698 51.1498 34.8098 51.3898 34.9698C51.2298 35.2098 51.1498 35.6098 51.3098 36.0098C51.7098 36.8098 52.5898 36.7298 52.9898 36.6498C53.0698 36.6498 53.1498 36.6498 53.2298 36.6498C53.4698 36.9698 53.6298 37.2898 53.7098 37.4498C53.6298 37.6098 53.4698 37.8498 53.3898 38.1698C53.3898 38.3298 53.3098 38.4898 53.3098 38.6498C53.3098 38.7298 53.3098 38.7298 53.3098 38.7298C53.3098 38.7298 53.3098 38.7298 53.2298 38.8898L52.9898 39.1298C52.8298 39.2898 52.7498 39.3698 52.4298 39.6098C52.3498 39.6898 52.2698 39.6898 52.1098 39.7698C51.7898 39.9298 51.4698 40.0898 51.2298 40.4098C50.9898 40.6498 50.9098 40.9698 50.8298 41.1298C50.7498 41.2898 50.7498 41.2898 50.7498 41.3698C50.4298 41.6098 50.0298 41.8498 49.5498 42.0098C49.0698 42.1698 48.2698 42.0098 48.0298 42.0098C47.5498 41.9298 47.1498 42.1698 47.0698 42.6498C46.9898 43.0498 47.2298 43.5298 47.7098 43.6098C47.7898 43.6098 48.2698 43.6898 48.9098 43.6898C49.2298 43.6898 49.6298 43.6898 49.9498 43.5298C50.6698 43.3698 51.3098 43.0498 51.7898 42.5698C52.1098 42.2498 52.2698 41.9298 52.3498 41.6898C52.4298 41.5298 52.4298 41.4498 52.4298 41.4498C52.5098 41.3698 52.6698 41.2898 52.8298 41.2098C53.0698 41.1298 53.3098 40.9698 53.4698 40.8098C53.7898 40.4898 53.9498 40.4098 54.1098 40.1698L54.3498 39.9298C54.8298 39.4498 54.9098 39.1298 54.9098 38.7298C54.9098 38.6498 54.9098 38.5698 54.9098 38.4098C54.9098 38.4098 54.9098 38.4098 54.9898 38.3298C55.3098 38.0098 55.5498 37.6898 55.4698 37.1298Z" fill="#000091"/>
<path d="M42.3498 43.1298C42.2698 43.0498 42.2698 43.0498 42.2698 42.9698C42.2698 42.8898 42.1898 42.8098 42.5098 42.4898C42.8298 42.1698 42.8298 41.6898 42.5098 41.3698C42.1898 41.0498 41.7098 41.0498 41.3898 41.3698C41.1498 41.6098 40.4298 42.4098 40.8298 43.4498C40.9098 43.7698 41.0698 44.0098 41.2298 44.1698V44.2498C41.2298 44.4898 41.1498 44.5698 41.1498 44.5698C41.0698 44.5698 40.9898 44.5698 40.9098 44.6498C40.5898 44.7298 40.1898 44.7298 39.7898 45.0498C39.4698 45.2098 39.2298 45.2098 38.7498 45.0498C38.2698 44.9698 37.7098 44.8898 37.2298 44.9698C36.9098 45.0498 36.7498 45.0498 36.2698 44.7298C36.0298 44.5698 35.9498 44.4098 35.7898 44.2498C35.7098 44.0898 35.5498 43.9298 35.3098 43.7698C34.9898 43.5298 34.5898 43.4498 34.1898 43.5298C33.8698 43.6098 33.6298 43.7698 33.4698 44.0098C33.3898 44.0098 33.3098 44.0098 33.1498 44.0098C32.8298 44.0098 32.6698 43.9298 32.5898 43.9298C32.4298 43.9298 32.2698 43.8498 31.9498 43.8498C31.8698 43.8498 31.7098 43.8498 31.5498 43.8498C31.3098 43.8498 30.8298 43.7698 30.7498 43.7698C30.2698 43.2898 29.7098 43.2898 29.3898 43.2898C29.1498 43.2898 29.1498 43.2898 29.0698 43.2898C28.9898 43.2898 28.9898 43.2098 28.9098 43.1298C28.7498 42.8898 28.5098 42.5698 28.0298 42.4098C27.8698 42.3298 27.7098 42.3298 27.4698 42.2498C27.3098 42.2498 27.0698 42.1698 26.9098 42.0898C26.9098 42.0098 26.8298 41.9298 26.7498 41.8498C26.5898 41.6098 26.5098 41.2898 26.1898 41.0498C25.8698 40.8098 25.6298 40.7298 25.3898 40.7298C25.3898 40.6498 25.3898 40.5698 25.3898 40.4898V40.2498C25.3898 40.1698 25.5498 40.0898 25.6298 40.0098C25.7898 39.8498 26.1098 39.5298 26.2698 39.1298C26.3498 38.8898 26.4298 38.7298 26.5098 38.6498C26.6698 38.2498 26.7498 38.0098 26.8298 37.3698C26.8298 37.2098 26.9098 37.0498 26.9898 36.8098C27.0698 36.4898 27.1498 36.0898 27.1498 35.7698C27.1498 35.3698 27.0698 35.1298 26.9898 35.0498V34.9698C26.9898 34.6498 27.0698 34.4898 27.1498 34.2498L27.2298 33.9298C27.3098 33.6898 27.3098 33.3698 27.3898 33.0498C27.3898 32.8898 27.3898 32.7298 27.3898 32.6498C27.4698 32.2498 27.3898 31.8498 27.3098 31.5298C27.3098 31.3698 27.2298 31.2098 27.2298 31.1298C27.2298 31.0498 27.2298 30.9698 27.3098 30.8898C27.3898 30.5698 27.7098 29.5298 26.7498 29.1298C26.6698 29.0498 26.2698 28.8098 26.0298 28.5698C25.7098 28.2498 25.2298 28.2498 24.9098 28.5698C24.5898 28.8898 24.5898 29.3698 24.9098 29.6898C25.0698 29.8498 25.3898 30.1698 25.7898 30.4098C25.7898 30.4098 25.7898 30.4098 25.7898 30.4898C25.7898 30.5698 25.7098 30.8098 25.7098 31.0498C25.7098 31.3698 25.7898 31.6098 25.7898 31.7698C25.8698 32.0098 25.8698 32.0898 25.8698 32.2498C25.8698 32.4098 25.7898 32.6498 25.7898 32.8898C25.7898 33.0498 25.7898 33.2898 25.7098 33.3698L25.6298 33.6898C25.5498 34.0098 25.4698 34.3298 25.3898 34.7298C25.3098 35.2098 25.4698 35.4498 25.5498 35.6098C25.5498 35.6898 25.5498 35.6898 25.5498 35.7698C25.5498 35.9298 25.4698 36.1698 25.3898 36.4098C25.3098 36.6498 25.2298 36.9698 25.2298 37.2098C25.1498 37.6898 25.1498 37.7698 25.0698 38.0098C24.9898 38.1698 24.9098 38.3298 24.8298 38.5698C24.7498 38.6498 24.6698 38.8098 24.5098 38.9698C24.1898 39.2898 23.7898 39.6898 23.7898 40.4098V40.5698C23.7898 40.9698 23.7898 41.5298 24.3498 42.0898C24.6698 42.4098 24.9898 42.4098 25.2298 42.4098C25.2298 42.4898 25.3098 42.5698 25.3098 42.5698C25.4698 42.8898 25.7098 43.2898 26.1098 43.5298C26.4298 43.6898 26.7498 43.7698 27.0698 43.8498C27.2298 43.8498 27.3898 43.9298 27.4698 43.9298C27.4698 43.9298 27.5498 44.0098 27.5498 44.0898C27.7098 44.2498 27.8698 44.4898 28.1898 44.6498C28.6698 44.9698 29.1498 44.8898 29.3898 44.8898C29.4698 44.8898 29.5498 44.8898 29.6298 44.8898C30.1098 45.3698 30.8298 45.3698 31.3898 45.4498C31.4698 45.4498 31.6298 45.4498 31.7098 45.4498C32.0298 45.4498 32.1098 45.5298 32.2698 45.5298C32.4298 45.5298 32.5898 45.6098 32.9898 45.6098C33.3098 45.6098 34.0298 45.6898 34.5098 45.2898C34.6698 45.5298 34.9098 45.7698 35.3098 46.0898C36.1898 46.6498 36.7498 46.6498 37.3898 46.5698C37.6298 46.5698 37.8698 46.4898 38.2698 46.6498C38.5098 46.7298 38.8298 46.8098 39.2298 46.8098C39.6298 46.8098 40.0298 46.7298 40.5098 46.4898C40.6698 46.4098 40.8298 46.3298 41.0698 46.3298C41.7898 46.2498 42.5098 46.0098 42.6698 44.5698C42.8298 43.7698 42.6698 43.4498 42.3498 43.1298Z" fill="#000091"/>
</svg>
