<svg width="280" height="607" viewBox="0 0 280 607" fill="none" xmlns="http://www.w3.org/2000/svg">
<g opacity="0.3">
<path d="M170 29H283" stroke="white" stroke-width="6" stroke-linecap="round"/>
<path d="M251 3H364" stroke="white" stroke-width="6" stroke-linecap="round"/>
<path d="M131 55L330 55" stroke="white" stroke-width="6" stroke-linecap="round"/>
<path d="M78 268L277 268" stroke="white" stroke-width="6" stroke-linecap="round"/>
<path d="M14 320L213 320" stroke="white" stroke-width="6" stroke-linecap="round"/>
<path d="M238 320L437 320" stroke="white" stroke-width="6" stroke-linecap="round"/>
<path d="M143 534L342 534" stroke="white" stroke-width="6" stroke-linecap="round"/>
<path d="M108 557L307 557" stroke="white" stroke-width="6" stroke-linecap="round"/>
<path d="M117 452L316 452" stroke="white" stroke-width="6" stroke-linecap="round"/>
<path d="M70 479L269 479" stroke="white" stroke-width="6" stroke-linecap="round"/>
<path d="M258 81L434 81" stroke="white" stroke-width="6" stroke-linecap="round"/>
<path d="M107 241L283 241" stroke="white" stroke-width="6" stroke-linecap="round"/>
<path d="M3 398L179 398" stroke="white" stroke-width="6" stroke-linecap="round"/>
<path d="M213 107L515 107" stroke="white" stroke-width="6" stroke-linecap="round"/>
<path d="M66 344L368 344" stroke="white" stroke-width="6" stroke-linecap="round"/>
<path d="M3 373L305 373" stroke="white" stroke-width="6" stroke-linecap="round"/>
<path d="M197 398L499 398" stroke="white" stroke-width="6" stroke-linecap="round"/>
<path d="M213 425L515 425" stroke="white" stroke-width="6" stroke-linecap="round"/>
<path d="M143 135L445 135" stroke="white" stroke-width="6" stroke-linecap="round"/>
<path d="M163 507L465 507" stroke="white" stroke-width="6" stroke-linecap="round"/>
<path d="M157 581L459 581" stroke="white" stroke-width="6" stroke-linecap="round"/>
<path d="M178 159L480 159" stroke="white" stroke-width="6" stroke-linecap="round"/>
<path d="M28 292L330 292" stroke="white" stroke-width="6" stroke-linecap="round"/>
<path d="M213 185L515 185" stroke="white" stroke-width="6" stroke-linecap="round"/>
<path d="M56 213L358 213" stroke="white" stroke-width="6" stroke-linecap="round"/>
<path d="M154 185H186" stroke="white" stroke-width="6" stroke-linecap="round"/>
<path d="M158 107H190" stroke="white" stroke-width="6" stroke-linecap="round"/>
<path d="M119 159H151" stroke="white" stroke-width="6" stroke-linecap="round"/>
<path d="M154 81H225" stroke="white" stroke-width="6" stroke-linecap="round"/>
<path d="M202 604H273" stroke="white" stroke-width="6" stroke-linecap="round"/>
</g>
</svg>
